<svg height="512pt" viewBox="0 -3 512 512" width="512pt" xmlns="http://www.w3.org/2000/svg"><path d="m472.671875 372.621094c-1.140625.261718-171.601563-43.078125-169.742187-51.148438l23.429687-101.578125 6.921875-30 10.257812-44.460937h92.109376l10.261718 44.460937 6.917969 30 31.082031 134.738281c1.871094 8.070313-3.171875 16.132813-11.238281 17.988282zm0 0" fill="#e8dfda"/><path d="m437.554688 158.886719h-95.910157c-8.285156 0-15-6.714844-15-15 0-8.285157 6.714844-15 15-15h95.910157c8.28125 0 15 6.714843 15 15 0 8.285156-6.71875 15-15 15zm0 0" fill="#d9d0cb"/><path d="m452.828125 219.894531h-126.46875l6.921875-30h112.628906zm0 0" fill="#d9d0cb"/><path d="m280.738281 304.242188h-224.757812c.050781-.871094.148437-1.757813.359375-2.640626l33.121094-143.589843 6.917968-30 15.210938-65.9375h113.289062l15.210938 65.9375 6.921875 30zm0 0" fill="#f2ede9"/><g fill="#e8dfda"><path d="m236.484375 75.648438h-136.5c-8.285156 0-15-6.714844-15-15 0-8.28125 6.714844-15 15-15h136.5c8.28125 0 15 6.71875 15 15 0 8.285156-6.714844 15-15 15zm0 0"/><path d="m247.011719 158.015625h-157.550781l6.917968-30h143.710938zm0 0"/><path d="m247.011719 158.015625-6.921875-30-15.210938-65.941406h-56.519531v242.167969h112.378906zm0 0"/></g><path d="m251.484375 60.648438c0-8.28125-6.71875-15-15-15h-68.125v30h68.125c8.285156 0 15-6.714844 15-15zm0 0" fill="#d9d0cb"/><path d="m240.089844 128.015625h-71.730469v30h78.652344zm0 0" fill="#d9d0cb"/><path d="m500.875 358.328125-241-64.433594c-1.265625-.335937-2.566406-.507812-3.875-.507812h-241c-8.285156 0-15 6.714843-15 15v182.183593c0 8.285157 6.714844 15 15 15h482c8.285156 0 15-6.714843 15-15v-117.75c0-6.792968-4.5625-12.738281-11.125-14.492187zm0 0" fill="#68afe7"/><path d="m500.875 358.328125-241-64.433594c-1.265625-.335937-2.566406-.507812-3.875-.507812h-87.640625v212.183593h328.640625c8.285156 0 15-6.714843 15-15v-117.75c0-6.792968-4.5625-12.738281-11.125-14.492187zm0 0" fill="#3e98df"/><path d="m142.816406 354.226562h-64.140625c-8.285156 0-15 6.714844-15 15v64.140626c0 8.285156 6.714844 15 15 15h64.140625c8.28125 0 15-6.714844 15-15v-64.140626c0-8.285156-6.71875-15-15-15zm0 0" fill="#1a659e"/><path d="m258.472656 354.226562h-64.140625c-8.28125 0-15 6.714844-15 15v64.140626c0 8.285156 6.71875 15 15 15h64.140625c8.285156 0 15-6.714844 15-15v-64.140626c0-8.285156-6.714844-15-15-15zm0 0" fill="#0d4168"/><path d="m363.53125 97.054688c-8.28125 0-15-6.714844-15-15v-67.054688c0-8.285156 6.71875-15 15-15 8.285156 0 15 6.714844 15 15v67.054688c0 8.285156-6.714844 15-15 15zm0 0" fill="#00db7f"/><path d="m415.664062 110.175781c-8.285156 0-15-6.714843-15-15v-46.648437c0-8.285156 6.714844-15 15-15 8.28125 0 15 6.714844 15 15v46.648437c0 8.285157-6.71875 15-15 15zm0 0" fill="#00db7f"/></svg>