<?xml version="1.0" encoding="utf-8"?>
<!-- Generator: Adobe Illustrator 22.0.1, SVG Export Plug-In . SVG Version: 6.00 Build 0)  -->
<svg xmlns="http://www.w3.org/2000/svg" xmlns:xlink="http://www.w3.org/1999/xlink" version="1.1" id="Layer_2" x="0px" y="0px" viewBox="0 0 256 256" style="enable-background:new 0 0 256 256;" xml:space="preserve" width="512" height="512">
<style type="text/css">
	.st0{fill:#3A312A;}
	.st1{fill:#D7E057;}
	.st2{fill:#F16C7A;}
	.st3{fill:#8AC6DD;}
	.st4{fill:#CE4E61;}
	.st5{fill:#68A8BC;}
	.st6{fill:#87796F;}
	.st7{fill:#FCE8CB;}
	.st8{fill:#6B5B51;}
	.st9{fill:#B9BC39;}
	.st10{fill:#CCAE8B;}
	.st11{fill:#8AC6DD;stroke:#3A312A;stroke-width:3;stroke-linecap:round;stroke-linejoin:round;stroke-miterlimit:10;}
	.st12{fill:#F5978A;}
	.st13{fill-rule:evenodd;clip-rule:evenodd;fill:#D7E057;}
	.st14{fill-rule:evenodd;clip-rule:evenodd;fill:#FCE8CB;}
</style>
<g>
	<g>
		<g>
			<path class="st6" d="M186.44,16.46H93.77c-6.94,0-12.93,4.1-15.7,10c-1.05,2.23-1.63,4.72-1.63,7.34v54.6h10V33.8     c0-4.05,3.29-7.34,7.33-7.34h34.38c4.04,0,7.33,3.29,7.33,7.34v5.39c0.68-0.04,1.36-0.06,2.05-0.06c2.74,0,5.41,0.32,7.97,0.93     V33.8c0-4.05,3.29-7.34,7.33-7.34h33.61c4.04,0,7.33,3.29,7.33,7.34v5.6c1.42-0.18,2.86-0.27,4.33-0.27     c1.93,0,3.83,0.16,5.67,0.47v-5.8C203.77,24.24,195.99,16.46,186.44,16.46z"/>
		</g>
	</g>
	<g>
		<g>
			<path class="st0" d="M186.439,14.96H93.77c-7.264,0-13.96,4.264-17.057,10.861c-1.176,2.498-1.773,5.183-1.773,7.979V88.4     c0,0.828,0.671,1.5,1.5,1.5h10c0.829,0,1.5-0.672,1.5-1.5V33.8c0-3.22,2.615-5.84,5.83-5.84h34.38c3.215,0,5.831,2.62,5.831,5.84     v5.39c0,0.413,0.17,0.808,0.471,1.091c0.299,0.284,0.709,0.432,1.115,0.406c3.193-0.182,6.475,0.092,9.586,0.833     c0.446,0.105,0.917,0.004,1.277-0.281c0.36-0.285,0.57-0.719,0.57-1.178V33.8c0-3.22,2.615-5.84,5.83-5.84h33.609     c3.215,0,5.83,2.62,5.83,5.84V39.4c0,0.431,0.186,0.841,0.509,1.126c0.323,0.284,0.748,0.417,1.181,0.362     c3.107-0.396,6.435-0.335,9.562,0.19c0.436,0.073,0.881-0.049,1.218-0.334s0.531-0.704,0.531-1.146v-5.8     C205.27,23.411,196.822,14.96,186.439,14.96z M202.27,37.872c-2.31-0.271-4.689-0.313-7-0.133V33.8c0-4.874-3.961-8.84-8.83-8.84     H152.83c-4.869,0-8.83,3.966-8.83,8.84v4.413c-2.301-0.42-4.67-0.615-7.02-0.579V33.8c0-4.874-3.961-8.84-8.831-8.84H93.77     c-4.869,0-8.83,3.966-8.83,8.84V86.9h-7V33.8c0-2.351,0.5-4.605,1.488-6.702c2.607-5.551,8.236-9.138,14.342-9.138h92.669     c8.729,0,15.83,7.105,15.83,15.84V37.872z"/>
		</g>
	</g>
	<g>
		<g>
			<path class="st1" d="M49.892,205.686c-6.05,0-10.954,4.904-10.954,10.954v22.904h21.908V216.64     C60.846,210.59,55.942,205.686,49.892,205.686z"/>
		</g>
	</g>
	<g>
		<g>
			<path class="st0" d="M49.892,204.186c-6.867,0-12.454,5.587-12.454,12.454v22.903c0,0.828,0.671,1.5,1.5,1.5h21.908     c0.829,0,1.5-0.672,1.5-1.5V216.64C62.346,209.772,56.759,204.186,49.892,204.186z M59.346,238.043H40.438V216.64     c0-5.213,4.241-9.454,9.454-9.454s9.454,4.241,9.454,9.454V238.043z"/>
		</g>
	</g>
	<g>
		<g>
			<path class="st1" d="M113.733,205.686c-6.05,0-10.954,4.904-10.954,10.954v22.904h21.908V216.64     C124.687,210.59,119.782,205.686,113.733,205.686z"/>
		</g>
	</g>
	<g>
		<g>
			<path class="st0" d="M113.733,204.186c-6.867,0-12.454,5.587-12.454,12.454v22.903c0,0.828,0.671,1.5,1.5,1.5h21.908     c0.829,0,1.5-0.672,1.5-1.5V216.64C126.186,209.772,120.6,204.186,113.733,204.186z M123.186,238.043h-18.908V216.64     c0-5.213,4.241-9.454,9.454-9.454c5.213,0,9.454,4.241,9.454,9.454V238.043z"/>
		</g>
	</g>
	<g>
		<g>
			
				<ellipse transform="matrix(0.999 -0.0453 0.0453 0.999 -7.3688 3.8762)" class="st2" cx="81.812" cy="164.471" rx="64.708" ry="64.708"/>
		</g>
	</g>
	<g>
		<g>
			<path class="st0" d="M81.813,98.263c-36.507,0-66.208,29.701-66.208,66.208s29.701,66.208,66.208,66.208     c36.507,0,66.208-29.701,66.208-66.208S118.32,98.263,81.813,98.263z M81.813,227.679c-34.854,0-63.208-28.355-63.208-63.208     s28.355-63.208,63.208-63.208c34.853,0,63.208,28.355,63.208,63.208S116.665,227.679,81.813,227.679z"/>
		</g>
	</g>
	<g>
		<g>
			<path class="st1" d="M101.786,88.4H61.839c-5.09,0-9.217,4.127-9.217,9.217v9.117h58.381v-9.117     C111.003,92.527,106.876,88.4,101.786,88.4z"/>
		</g>
	</g>
	<g>
		<g>
			<path class="st0" d="M101.786,86.899H61.839c-5.91,0-10.717,4.808-10.717,10.718v9.116c0,0.828,0.671,1.5,1.5,1.5h58.381     c0.829,0,1.5-0.672,1.5-1.5v-9.116C112.503,91.707,107.695,86.899,101.786,86.899z M109.503,105.233H54.122v-7.616     c0-4.256,3.462-7.718,7.717-7.718h39.946c4.255,0,7.718,3.462,7.718,7.718V105.233z"/>
		</g>
	</g>
	<g>
		<g>
			<path class="st1" d="M81.813,205.686c-6.05,0-10.954,4.904-10.954,10.954v22.904h21.908V216.64     C92.766,210.59,87.862,205.686,81.813,205.686z"/>
		</g>
	</g>
	<g>
		<g>
			<path class="st0" d="M81.813,204.186c-6.867,0-12.454,5.587-12.454,12.454v22.903c0,0.828,0.671,1.5,1.5,1.5h21.908     c0.829,0,1.5-0.672,1.5-1.5V216.64C94.267,209.772,88.68,204.186,81.813,204.186z M91.267,238.043H72.358V216.64     c0-5.213,4.241-9.454,9.454-9.454c5.213,0,9.454,4.241,9.454,9.454V238.043z"/>
		</g>
	</g>
	<g>
		<g>
			<path class="st7" d="M137.526,39.126L137.526,39.126c-19.1,0-34.583,15.483-34.583,34.583v165.75h69.167V73.71     C172.11,54.61,156.626,39.126,137.526,39.126z"/>
		</g>
	</g>
	<g>
		<g>
			<path class="st0" d="M137.526,37.627c-19.896,0-36.083,16.187-36.083,36.083v78.006c0,0.828,0.671,1.5,1.5,1.5s1.5-0.672,1.5-1.5     V73.71c0-18.242,14.841-33.083,33.083-33.083c18.242,0,33.083,14.841,33.083,33.083v164.25h-66.167v-71.422     c0-0.828-0.671-1.5-1.5-1.5s-1.5,0.672-1.5,1.5v72.922c0,0.828,0.671,1.5,1.5,1.5h69.167c0.828,0,1.5-0.672,1.5-1.5V73.71     C173.609,53.813,157.423,37.627,137.526,37.627z"/>
		</g>
	</g>
	<g>
		<g>
			<path class="st6" d="M172.214,176.544h-69.376c-3.371,0-6.104,2.733-6.104,6.104l0,0c0,3.371,2.733,6.104,6.104,6.104h69.376     c3.371,0,6.104-2.733,6.104-6.104l0,0C178.318,179.276,175.585,176.544,172.214,176.544z"/>
		</g>
	</g>
	<g>
		<g>
			<path class="st0" d="M172.214,175.044h-69.375c-4.193,0-7.604,3.411-7.604,7.604s3.411,7.604,7.604,7.604h69.375     c4.193,0,7.604-3.411,7.604-7.604S176.407,175.044,172.214,175.044z M172.214,187.251h-69.375c-2.539,0-4.604-2.065-4.604-4.604     s2.065-4.604,4.604-4.604h69.375c2.539,0,4.604,2.065,4.604,4.604S174.753,187.251,172.214,187.251z"/>
		</g>
	</g>
	<g>
		<g>
			<path class="st6" d="M172.214,125.835h-69.376c-3.371,0-6.104,2.733-6.104,6.104s2.733,6.104,6.104,6.104h69.376     c3.371,0,6.104-2.733,6.104-6.104S175.585,125.835,172.214,125.835z"/>
		</g>
	</g>
	<g>
		<g>
			<path class="st0" d="M172.214,124.335h-69.375c-4.193,0-7.604,3.411-7.604,7.604c0,4.192,3.411,7.604,7.604,7.604h69.375     c4.193,0,7.604-3.411,7.604-7.604C179.818,127.746,176.407,124.335,172.214,124.335z M172.214,136.543h-69.375     c-2.539,0-4.604-2.065-4.604-4.604c0-2.539,2.065-4.604,4.604-4.604h69.375c2.539,0,4.604,2.065,4.604,4.604     C176.818,134.478,174.753,136.543,172.214,136.543z"/>
		</g>
	</g>
	<g>
		<g>
			<path class="st6" d="M172.214,75.126h-69.376c-3.371,0-6.104,2.733-6.104,6.104s2.733,6.104,6.104,6.104h69.376     c3.371,0,6.104-2.733,6.104-6.104S175.585,75.126,172.214,75.126z"/>
		</g>
	</g>
	<g>
		<g>
			<path class="st0" d="M172.214,73.627h-69.375c-4.193,0-7.604,3.411-7.604,7.604s3.411,7.604,7.604,7.604h69.375     c4.193,0,7.604-3.411,7.604-7.604S176.407,73.627,172.214,73.627z M172.214,85.834h-69.375c-2.539,0-4.604-2.065-4.604-4.604     s2.065-4.604,4.604-4.604h69.375c2.539,0,4.604,2.065,4.604,4.604S174.753,85.834,172.214,85.834z"/>
		</g>
	</g>
	<g>
		<g>
			<path class="st1" d="M48.314,26.45C47.34,38.014,35.29,39.839,35.29,39.839c10.347,0.487,12.925,14.059,12.925,14.059     c0.221-9.677,13.321-14.202,13.321-14.202C51.723,39.109,48.314,26.45,48.314,26.45z"/>
		</g>
	</g>
	<g>
		<g>
			<path class="st0" d="M61.625,38.199c-8.604-0.515-11.832-12.024-11.863-12.141c-0.191-0.703-0.861-1.169-1.584-1.102     c-0.725,0.066-1.298,0.642-1.359,1.367c-0.86,10.215-11.313,11.964-11.754,12.032c-0.763,0.116-1.313,0.791-1.273,1.561     c0.04,0.771,0.657,1.385,1.428,1.421c9.028,0.425,11.498,12.718,11.522,12.842c0.137,0.712,0.759,1.218,1.472,1.218     c0.042,0,0.084-0.002,0.126-0.005c0.764-0.064,1.357-0.693,1.375-1.46c0.195-8.509,12.192-12.777,12.313-12.819     c0.675-0.234,1.092-0.914,0.994-1.622C62.923,38.782,62.339,38.241,61.625,38.199z M48.06,48.545     c-1.357-3.131-3.708-6.907-7.586-8.877c2.931-1.404,6.409-3.913,8.202-8.272c1.551,3.071,4.199,6.88,8.334,8.723     C54.001,41.758,50.086,44.523,48.06,48.545z"/>
		</g>
	</g>
	<g>
		<g>
			<path class="st1" d="M26.616,43.43c-0.689,8.179-9.212,9.47-9.212,9.47c7.318,0.344,9.142,9.944,9.142,9.944     c0.156-6.844,9.422-10.045,9.422-10.045C29.026,52.385,26.616,43.43,26.616,43.43z"/>
		</g>
	</g>
	<g>
		<g>
			<path class="st0" d="M36.057,51.303c-5.766-0.345-7.972-8.186-7.993-8.265c-0.19-0.702-0.854-1.165-1.582-1.102     c-0.726,0.065-1.299,0.643-1.36,1.368c-0.579,6.87-7.647,8.066-7.942,8.113c-0.763,0.116-1.313,0.791-1.273,1.561     c0.04,0.771,0.657,1.385,1.428,1.421c6.035,0.284,7.723,8.644,7.739,8.726c0.135,0.713,0.759,1.22,1.472,1.22     c0.042,0,0.083-0.002,0.125-0.005c0.765-0.063,1.358-0.693,1.376-1.461c0.13-5.708,8.332-8.633,8.412-8.661     c0.677-0.234,1.094-0.913,0.996-1.622C37.356,51.887,36.771,51.345,36.057,51.303z M26.473,58.098     c-0.924-1.886-2.34-3.947-4.447-5.28c1.856-1.041,3.697-2.629,4.871-4.916c1.057,1.874,2.654,3.954,4.941,5.224     C29.987,54.226,27.849,55.865,26.473,58.098z"/>
		</g>
	</g>
	<g>
		<g>
			<path class="st1" d="M26.616,16.773c-0.689,8.179-9.212,9.471-9.212,9.471c7.318,0.344,9.142,9.944,9.142,9.944     c0.156-6.844,9.422-10.045,9.422-10.045C29.026,25.727,26.616,16.773,26.616,16.773z"/>
		</g>
	</g>
	<g>
		<g>
			<path class="st0" d="M36.057,24.646c-5.766-0.346-7.972-8.187-7.994-8.266c-0.19-0.702-0.854-1.173-1.582-1.102     c-0.726,0.065-1.299,0.643-1.36,1.368c-0.579,6.871-7.647,8.066-7.942,8.113c-0.763,0.116-1.313,0.791-1.273,1.561     c0.04,0.771,0.657,1.385,1.427,1.421c6.035,0.284,7.724,8.645,7.739,8.727c0.135,0.713,0.759,1.22,1.472,1.22     c0.042,0,0.083-0.002,0.125-0.005c0.765-0.063,1.358-0.693,1.376-1.461c0.13-5.709,8.331-8.633,8.412-8.661     c0.676-0.233,1.094-0.913,0.996-1.622C37.356,25.229,36.771,24.688,36.057,24.646z M26.473,31.439     c-0.924-1.885-2.34-3.947-4.447-5.279c1.855-1.041,3.697-2.63,4.871-4.917c1.057,1.874,2.654,3.955,4.941,5.225     C29.987,27.568,27.849,29.207,26.473,31.439z"/>
		</g>
	</g>
	<g>
		<g>
			<path class="st3" d="M198.104,39.126L198.104,39.126c-19.1,0-34.583,15.484-34.583,34.583v165.75h69.167V73.71     C232.688,54.61,217.204,39.126,198.104,39.126z"/>
		</g>
	</g>
	<g>
		<g>
			<path class="st0" d="M198.104,37.627c-19.896,0-36.084,16.187-36.084,36.083v165.75c0,0.828,0.672,1.5,1.5,1.5h69.167     c0.828,0,1.5-0.672,1.5-1.5V73.71C234.188,53.813,218.001,37.627,198.104,37.627z M231.188,237.96h-66.167V73.71     c0-18.242,14.842-33.083,33.084-33.083s33.083,14.841,33.083,33.083V237.96z"/>
		</g>
	</g>
	<g>
		<g>
			<path class="st1" d="M232.792,227.252h-69.376c-3.371,0-6.104,2.733-6.104,6.104c0,3.371,2.733,6.104,6.104,6.104h69.376     c3.371,0,6.104-2.733,6.104-6.104C238.896,229.985,236.163,227.252,232.792,227.252z"/>
		</g>
	</g>
	<g>
		<g>
			<path class="st0" d="M232.792,225.752h-69.376c-4.192,0-7.604,3.411-7.604,7.604c0,4.192,3.411,7.604,7.604,7.604h69.376     c4.192,0,7.604-3.411,7.604-7.604C240.396,229.163,236.984,225.752,232.792,225.752z M232.792,237.96h-69.376     c-2.538,0-4.604-2.065-4.604-4.604c0-2.539,2.065-4.604,4.604-4.604h69.376c2.538,0,4.604,2.065,4.604,4.604     C237.396,235.895,235.33,237.96,232.792,237.96z"/>
		</g>
	</g>
	<g>
		<g>
			<path class="st1" d="M232.792,176.544h-69.376c-3.371,0-6.104,2.733-6.104,6.104l0,0c0,3.371,2.733,6.104,6.104,6.104h69.376     c3.371,0,6.104-2.733,6.104-6.104l0,0C238.896,179.276,236.163,176.544,232.792,176.544z"/>
		</g>
	</g>
	<g>
		<g>
			<path class="st0" d="M232.792,175.044h-69.376c-4.192,0-7.604,3.411-7.604,7.604s3.411,7.604,7.604,7.604h69.376     c4.192,0,7.604-3.411,7.604-7.604S236.984,175.044,232.792,175.044z M232.792,187.251h-69.376c-2.538,0-4.604-2.065-4.604-4.604     s2.065-4.604,4.604-4.604h69.376c2.538,0,4.604,2.065,4.604,4.604S235.33,187.251,232.792,187.251z"/>
		</g>
	</g>
	<g>
		<g>
			<path class="st1" d="M232.792,125.835h-69.376c-3.371,0-6.104,2.733-6.104,6.104s2.733,6.104,6.104,6.104h69.376     c3.371,0,6.104-2.733,6.104-6.104S236.163,125.835,232.792,125.835z"/>
		</g>
	</g>
	<g>
		<g>
			<path class="st0" d="M232.792,124.335h-69.376c-4.192,0-7.604,3.411-7.604,7.604c0,4.192,3.411,7.604,7.604,7.604h69.376     c4.192,0,7.604-3.411,7.604-7.604C240.396,127.746,236.984,124.335,232.792,124.335z M232.792,136.543h-69.376     c-2.538,0-4.604-2.065-4.604-4.604c0-2.539,2.065-4.604,4.604-4.604h69.376c2.538,0,4.604,2.065,4.604,4.604     C237.396,134.478,235.33,136.543,232.792,136.543z"/>
		</g>
	</g>
	<g>
		<g>
			<path class="st1" d="M232.792,75.126h-69.376c-3.371,0-6.104,2.733-6.104,6.104s2.733,6.104,6.104,6.104h69.376     c3.371,0,6.104-2.732,6.104-6.104S236.163,75.126,232.792,75.126z"/>
		</g>
	</g>
	<g>
		<g>
			<path class="st0" d="M232.792,73.627h-7.68c-0.828,0-1.5,0.672-1.5,1.5s0.672,1.5,1.5,1.5h7.68c2.538,0,4.604,2.065,4.604,4.604     s-2.065,4.604-4.604,4.604h-69.376c-2.538,0-4.604-2.065-4.604-4.604s2.065-4.604,4.604-4.604h47.014c0.828,0,1.5-0.672,1.5-1.5     s-0.672-1.5-1.5-1.5h-47.014c-4.192,0-7.604,3.411-7.604,7.604s3.411,7.604,7.604,7.604h69.376c4.192,0,7.604-3.411,7.604-7.604     S236.984,73.627,232.792,73.627z"/>
		</g>
	</g>
	<g>
		<g>
			<path class="st5" d="M198.101,40.626c-0.95,0-1.89,0.04-2.82,0.12c5.33,1.7,10.09,4.65,13.95,8.51     c6.26,6.25,10.13,14.9,10.13,24.45v1.42h4.25c0-0.83,0.67-1.5,1.5-1.5h6.07C231.141,55.427,216.321,40.626,198.101,40.626z"/>
		</g>
	</g>
	<g>
		<g>
			<path class="st9" d="M232.791,76.626h-7.68c-0.83,0-1.5-0.67-1.5-1.5h-4.14c3.37,0,6.1,2.73,6.1,6.1c0,1.84-0.82,3.5-2.11,4.61     h9.33c2.54,0,4.6-2.07,4.6-4.61C237.391,78.697,235.331,76.626,232.791,76.626z"/>
		</g>
	</g>
	<g>
		<g>
			<rect x="219.371" y="88.837" class="st5" width="11.82" height="35.5"/>
		</g>
	</g>
	<g>
		<g>
			<rect x="219.371" y="190.247" class="st5" width="11.82" height="35.51"/>
		</g>
	</g>
	<g>
		<g>
			<rect x="219.371" y="139.546" class="st5" width="11.82" height="35.5"/>
		</g>
	</g>
	<g>
		<g>
			<path class="st9" d="M232.791,228.756h-11.81c2.53,0,4.6,2.06,4.6,4.6s-2.07,4.6-4.6,4.6h11.81c2.54,0,4.6-2.06,4.6-4.6     S235.331,228.756,232.791,228.756z"/>
		</g>
	</g>
	<g>
		<g>
			<path class="st9" d="M232.791,178.046h-11.81c2.53,0,4.6,2.06,4.6,4.6c0,2.54-2.07,4.6-4.6,4.6h11.81c2.54,0,4.6-2.06,4.6-4.6     C237.391,180.106,235.331,178.046,232.791,178.046z"/>
		</g>
	</g>
	<g>
		<g>
			<path class="st9" d="M232.791,127.337h-11.81c2.53,0,4.6,2.06,4.6,4.6c0,2.54-2.07,4.61-4.6,4.61h11.81c2.54,0,4.6-2.07,4.6-4.61     C237.391,129.396,235.331,127.337,232.791,127.337z"/>
		</g>
	</g>
</g>
</svg>
