<svg height="472pt" viewBox="-67 0 471 472" width="472pt" xmlns="http://www.w3.org/2000/svg"><path d="m296.5 400v56c0 4.417969-3.582031 8-8 8h-240c-4.417969 0-8-3.582031-8-8v-56h40v40h32v-40h40v40h32v-40h40v40h32v-40zm0 0" fill="#898890"/><path d="m256.5 400h40v16h-40zm0 0" fill="#787680"/><path d="m8.5 456h320v16h-320zm0 0" fill="#787680"/><path d="m40.5 400h40v16h-40zm0 0" fill="#787680"/><path d="m168.5 128h-32v-64h64v64zm0 0" fill="#c6c5ca"/><path d="m56.5 0h224v32h-224zm0 0" fill="#e0e0e2"/><path d="m160.5 96h16v32h-16zm0 0" fill="#d8d7da"/><path d="m112.5 80h24v24h-24zm0 0" fill="#acabb1"/><path d="m72.5 32h16v96h-16zm0 0" fill="#898890"/><path d="m248.5 32h16v96h-16zm0 0" fill="#898890"/><g fill="#787680"><path d="m72.5 32h16v8h-16zm0 0"/><path d="m248.5 32h16v8h-16zm0 0"/><path d="m112.5 408h40v8h-40zm0 0"/><path d="m184.5 408h40v8h-40zm0 0"/></g><path d="m48.5 128h240c26.507812 0 48 21.492188 48 48v184c0 26.507812-21.492188 48-48 48h-240c-26.507812 0-48-21.492188-48-48v-184c0-26.507812 21.492188-48 48-48zm0 0" fill="#e0e0e2"/><path d="m196.5 408h92c26.507812 0 48-21.492188 48-48v-92c0 77.320312-62.679688 140-140 140zm0 0" fill="#c6c5ca"/><path d="m256.5 256c0 48.601562-39.398438 88-88 88s-88-39.398438-88-88 39.398438-88 88-88 88 39.398438 88 88zm0 0" fill="#bdfdff"/><path d="m208.5 272c0 22.089844-17.910156 40-40 40s-40-17.910156-40-40 40-72 40-72 40 49.910156 40 72zm0 0" fill="#ff5023"/><path d="m184.5 296c-.03125 8.148438-6.148438 14.984375-14.238281 15.921875-1.171875.105469-2.351563.105469-3.523438 0-8.089843-.9375-14.207031-7.773437-14.238281-15.921875 0-8.800781 16-48 16-48s16 39.199219 16 48zm0 0" fill="#ff9811"/><path d="m40.5 160c8.835938 0 16 7.164062 16 16v56c0 8.835938-7.164062 16-16 16s-16-7.164062-16-16v-56c0-8.835938 7.164062-16 16-16zm0 0" fill="#fff"/></svg>