<svg id="Capa_1" enable-background="new 0 0 512 512" height="512" viewBox="0 0 512 512" width="512" xmlns="http://www.w3.org/2000/svg"><g><path d="m417.34 129.07v64.54c-8.91 0-16.98 3.61-22.82 9.45s-9.45 13.9-9.45 22.81v38.72h-258.14v-38.72c0-17.82-14.45-32.26-32.27-32.26v-64.54h32.27l129.07-12.6 129.07 12.6z" fill="#ff7e37"/><path d="m417.34 129.07v64.54c-8.91 0-16.98 3.61-22.82 9.45s-9.45 13.9-9.45 22.81v38.72h-129.07v-148.12l129.07 12.6z" fill="#ff322b"/><path d="m471.16 290.41-75.38 161.34h-279.56l-75.38-161.34 215.16-64.53z" fill="#495f66"/><path d="m471.16 290.41-75.38 161.34h-139.78v-225.87z" fill="#3b4a51"/><path d="m301.25 301.25h30v30h-30z" fill="#2b394a"/><path d="m180.75 301.25h30v30h-30z" fill="#3b4a51"/><path d="m150.625 116.473h30v50.724h-30z" fill="#ff322b"/><path d="m210.875 116.473h30v50.724h-30z" fill="#ff322b"/><path d="m271.125 116.473h30v50.724h-30z" fill="#cc2d41"/><path d="m331.375 116.473h30v50.724h-30z" fill="#cc2d41"/><path d="m303.26 64.54-47.26 15.34-47.26-15.34 14.99-64.54h64.54z" fill="#495f66"/><path d="m303.26 64.54-47.26 15.34v-79.88h32.27z" fill="#3b4a51"/><path d="m385.07 96.8v32.27h-258.14v-32.27c0-17.82 14.45-32.26 32.27-32.26h193.6c17.82 0 32.27 14.44 32.27 32.26z" fill="#ecf2ff"/><path d="m385.07 96.8v32.27h-129.07v-64.53h96.8c17.82 0 32.27 14.44 32.27 32.26z" fill="#d9e5ff"/><path d="m512 512h-512v-96.86l15-15c30.12 0 30.12 28 60.25 28 30.12 0 30.12-28 60.25-28 30.12 0 30.12 28 60.25 28 30.12 0 30.12-28 60.24-28h.01c30.12.01 30.12 28 60.24 28 30.13 0 30.13-28 60.25-28 30.13 0 30.13 28 60.26 28 30.12 0 30.12-28 60.25-28l15 15z" fill="#97ccff"/><path d="m512 512h-256v-111.86c30.12.01 30.12 28 60.24 28 30.13 0 30.13-28 60.25-28 30.13 0 30.13 28 60.26 28 30.12 0 30.12-28 60.25-28l15 15z" fill="#7eaaff"/><path d="m512 385.14v30h-15c-9.17 0-12.99 3.55-19.92 9.99-8.17 7.6-19.38 18.01-40.33 18.01-20.96 0-32.16-10.41-40.34-18.01-11.03-12.85-28.14-13.45-39.83 0-25.88 27.18-61.75 20.55-80.68 0-5.57-6.5-12.7-9.86-19.9-9.86-7.04 0-14.14 3.21-19.92 9.86-25.88 27.18-61.75 20.55-80.67 0-11.03-12.85-28.14-13.45-39.83 0-25.88 27.18-61.75 20.55-80.67 0-6.93-6.44-10.74-9.99-19.91-9.99h-15v-30h15c20.96 0 32.16 10.41 40.34 18.01 11.02 12.85 28.13 13.46 39.82 0 25.88-27.17 61.75-20.54 80.67 0 11.03 12.85 28.14 13.46 39.83 0 12.17-12.78 26.55-18.09 40.34-17.97 15.53.11 30.31 7.1 40.33 17.97 11.03 12.85 28.14 13.46 39.82 0 25.88-27.18 61.76-20.54 80.68 0 11.03 12.85 28.14 13.46 39.83 0 8.18-7.6 19.38-18.01 40.34-18.01z" fill="#d9e5ff"/><path d="m512 385.14v30h-15c-9.17 0-12.99 3.55-19.92 9.99-8.17 7.6-19.38 18.01-40.33 18.01-20.96 0-32.16-10.41-40.34-18.01-11.03-12.85-28.14-13.45-39.83 0-25.88 27.18-61.75 20.55-80.68 0-5.57-6.5-12.7-9.86-19.9-9.86v-30.09c15.53.11 30.31 7.1 40.33 17.97 11.03 12.85 28.14 13.46 39.82 0 25.88-27.18 61.76-20.54 80.68 0 11.03 12.85 28.14 13.46 39.83 0 8.18-7.6 19.38-18.01 40.34-18.01z" fill="#bed5ff"/></g></svg>