<?xml version="1.0" encoding="iso-8859-1"?>
<!-- Generator: Adobe Illustrator 19.0.0, SVG Export Plug-In . SVG Version: 6.00 Build 0)  -->
<svg version="1.1" id="Layer_1" xmlns="http://www.w3.org/2000/svg" xmlns:xlink="http://www.w3.org/1999/xlink" x="0px" y="0px"
	 viewBox="0 0 509.287 509.287" style="enable-background:new 0 0 509.287 509.287;" xml:space="preserve">
<circle style="fill:#F1F3F7;" cx="254.644" cy="254.644" r="254.644"/>
<g>
	<rect x="165.128" y="422.146" style="fill:#646B79;" width="12.546" height="10.511"/>
	<rect x="140.037" y="422.146" style="fill:#646B79;" width="12.546" height="10.511"/>
	<rect x="115.285" y="76.63" style="fill:#646B79;" width="12.546" height="10.511"/>
	<rect x="114.946" y="422.146" style="fill:#646B79;" width="12.546" height="10.511"/>
	<rect x="140.376" y="76.63" style="fill:#646B79;" width="12.546" height="10.511"/>
	<rect x="214.972" y="422.146" style="fill:#646B79;" width="12.546" height="10.511"/>
	<rect x="165.128" y="76.63" style="fill:#646B79;" width="12.546" height="10.511"/>
	<rect x="240.064" y="422.146" style="fill:#646B79;" width="12.546" height="10.511"/>
	<rect x="215.311" y="76.63" style="fill:#646B79;" width="12.546" height="10.511"/>
	<rect x="190.22" y="76.63" style="fill:#646B79;" width="12.546" height="10.511"/>
	<rect x="190.22" y="422.146" style="fill:#646B79;" width="12.546" height="10.511"/>
	<rect x="240.403" y="76.63" style="fill:#646B79;" width="12.546" height="10.511"/>
	<rect x="76.63" y="335.682" style="fill:#646B79;" width="10.511" height="12.546"/>
	<rect x="76.63" y="360.774" style="fill:#646B79;" width="10.511" height="12.546"/>
	<rect x="76.63" y="285.838" style="fill:#646B79;" width="10.511" height="12.546"/>
	<rect x="76.63" y="310.591" style="fill:#646B79;" width="10.511" height="12.546"/>
	<rect x="76.63" y="385.526" style="fill:#646B79;" width="10.511" height="12.546"/>
	<rect x="76.63" y="135.629" style="fill:#646B79;" width="10.511" height="12.546"/>
	<rect x="76.63" y="185.812" style="fill:#646B79;" width="10.511" height="12.546"/>
	<rect x="76.63" y="160.721" style="fill:#646B79;" width="10.511" height="12.546"/>
	<rect x="76.63" y="260.747" style="fill:#646B79;" width="10.511" height="12.546"/>
	<rect x="76.63" y="210.903" style="fill:#646B79;" width="10.511" height="12.546"/>
	<rect x="76.63" y="235.656" style="fill:#646B79;" width="10.511" height="12.546"/>
	<rect x="422.146" y="244.472" style="fill:#646B79;" width="10.511" height="12.546"/>
	<path style="fill:#646B79;" d="M432.657,394.342h-10.511v4.069h-25.43v23.735h-6.781v10.511h6.781v24.074h58.321v-58.32h-22.379
		V394.342z M444.864,446.22h-37.637v-37.637h37.637V446.22z"/>
	<rect x="422.146" y="294.315" style="fill:#646B79;" width="10.511" height="12.546"/>
	<rect x="422.146" y="269.563" style="fill:#646B79;" width="10.511" height="12.546"/>
	<rect x="422.146" y="369.25" style="fill:#646B79;" width="10.511" height="12.546"/>
	<rect x="422.146" y="344.498" style="fill:#646B79;" width="10.511" height="12.546"/>
	<rect x="422.146" y="219.38" style="fill:#646B79;" width="10.511" height="12.546"/>
	<rect x="422.146" y="319.407" style="fill:#646B79;" width="10.511" height="12.546"/>
	<rect x="422.146" y="119.354" style="fill:#646B79;" width="10.511" height="12.546"/>
	<rect x="422.146" y="144.445" style="fill:#646B79;" width="10.511" height="12.546"/>
	<rect x="422.146" y="194.289" style="fill:#646B79;" width="10.511" height="12.546"/>
	<rect x="422.146" y="169.536" style="fill:#646B79;" width="10.511" height="12.546"/>
	<rect x="265.155" y="422.146" style="fill:#646B79;" width="12.546" height="10.511"/>
	<rect x="290.246" y="76.63" style="fill:#646B79;" width="12.546" height="10.511"/>
	<rect x="315.338" y="76.63" style="fill:#646B79;" width="12.546" height="10.511"/>
	<rect x="265.155" y="76.63" style="fill:#646B79;" width="12.546" height="10.511"/>
	<rect x="340.09" y="422.146" style="fill:#646B79;" width="12.546" height="10.511"/>
	<rect x="289.907" y="422.146" style="fill:#646B79;" width="12.546" height="10.511"/>
	<rect x="314.999" y="422.146" style="fill:#646B79;" width="12.546" height="10.511"/>
	<rect x="340.09" y="76.63" style="fill:#646B79;" width="12.546" height="10.511"/>
	<rect x="364.842" y="422.146" style="fill:#646B79;" width="12.546" height="10.511"/>
	<rect x="365.181" y="76.63" style="fill:#646B79;" width="12.546" height="10.511"/>
	<path style="fill:#646B79;" d="M53.913,110.877H76.63v12.207h10.511v-12.207h25.43V52.556h-58.66V110.877z M64.424,63.068h37.637
		v37.637H64.424V63.068z"/>
	<path style="fill:#646B79;" d="M396.715,52.556V76.63h-6.781v10.511h6.781v24.074h58.321v-58.66H396.715z M444.864,100.705h-37.637
		V63.068h37.637V100.705z"/>
	<path style="fill:#646B79;" d="M53.913,456.731h58.321v-58.321H53.913V456.731z M64.424,408.583h37.637v37.637H64.424V408.583z"/>
</g>
<rect x="146.819" y="146.819" style="fill:#6EB1E1;" width="215.65" height="215.65"/>
<g>
</g>
<g>
</g>
<g>
</g>
<g>
</g>
<g>
</g>
<g>
</g>
<g>
</g>
<g>
</g>
<g>
</g>
<g>
</g>
<g>
</g>
<g>
</g>
<g>
</g>
<g>
</g>
<g>
</g>
</svg>
