<?xml version="1.0"?>
<svg xmlns="http://www.w3.org/2000/svg" xmlns:xlink="http://www.w3.org/1999/xlink" version="1.1" id="Layer_2" x="0px" y="0px" viewBox="0 0 256 256" style="enable-background:new 0 0 256 256;" xml:space="preserve" width="512px" height="512px"><g transform="matrix(1.11567 0 0 1.11567 -14.8055 -14.8055)"><style type="text/css">
	.st0{fill:#3A312A;}
	.st1{fill:#D7E057;}
	.st2{fill:#F16C7A;}
	.st3{fill:#8AC6DD;}
	.st4{fill:#CE4E61;}
	.st5{fill:#68A8BC;}
	.st6{fill:#87796F;}
	.st7{fill:#FCE8CB;}
	.st8{fill:#6B5B51;}
	.st9{fill:#B9BC39;}
	.st10{fill:#CCAE8B;}
	.st11{fill:#8AC6DD;stroke:#3A312A;stroke-width:3;stroke-linecap:round;stroke-linejoin:round;stroke-miterlimit:10;}
	.st12{fill:#F5978A;}
	.st13{fill-rule:evenodd;clip-rule:evenodd;fill:#D7E057;}
	.st14{fill-rule:evenodd;clip-rule:evenodd;fill:#FCE8CB;}
</style><g>
	<g>
		<g>
			<path class="st6 active-path" d="M103.06,16.402H70.086c-8.969,0-16.266,7.297-16.266,16.266v60.637c0,1.933,1.567,3.5,3.5,3.5     c1.933,0,3.5-1.567,3.5-3.5V32.668c0-5.109,4.157-9.266,9.266-9.266h32.974c5.109,0,9.266,4.157,9.266,9.266     c0,1.933,1.567,3.5,3.5,3.5s3.5-1.567,3.5-3.5C119.326,23.699,112.029,16.402,103.06,16.402z" data-original="#000000" fill="#000000"/>
		</g>
	</g>
	<g>
		<g>
			<path class="st0 active-path" d="M103.06,14.902H70.086c-9.796,0-17.766,7.97-17.766,17.766v60.637c0,2.757,2.243,5,5,5s5-2.243,5-5V32.668     c0-4.282,3.483-7.766,7.766-7.766h32.974c4.282,0,7.766,3.484,7.766,7.766c0,2.757,2.243,5,5,5c2.757,0,5-2.243,5-5     C120.826,22.872,112.856,14.902,103.06,14.902z M115.826,34.668c-1.103,0-2-0.897-2-2c0-5.936-4.83-10.766-10.766-10.766H70.086     c-5.936,0-10.766,4.83-10.766,10.766v60.637c0,1.103-0.897,2-2,2c-1.103,0-2-0.897-2-2V32.668     c0-8.142,6.624-14.766,14.766-14.766h32.974c8.142,0,14.766,6.624,14.766,14.766C117.826,33.771,116.929,34.668,115.826,34.668z" data-original="#000000" fill="#000000"/>
		</g>
	</g>
	<g>
		<g>
			<rect x="84.678" y="52.895" class="st2 active-path" width="147.294" height="49.495" data-original="#000000" fill="#000000"/>
		</g>
	</g>
	<g>
		<g>
			<path class="st0 active-path" d="M231.972,51.395H84.679c-0.829,0-1.5,0.671-1.5,1.5v49.495c0,0.829,0.671,1.5,1.5,1.5h147.293     c0.829,0,1.5-0.671,1.5-1.5V52.895C233.472,52.066,232.801,51.395,231.972,51.395z M230.472,100.89H86.179V54.395h144.293V100.89     z" data-original="#000000" fill="#000000"/>
		</g>
	</g>
	<g>
		<g>
			<rect x="84.678" y="115.126" class="st2 active-path" width="147.294" height="49.495" data-original="#000000" fill="#000000"/>
		</g>
	</g>
	<g>
		<g>
			<path class="st0 active-path" d="M231.972,113.626H84.679c-0.829,0-1.5,0.671-1.5,1.5v49.496c0,0.829,0.671,1.5,1.5,1.5h147.293     c0.829,0,1.5-0.671,1.5-1.5v-49.496C233.472,114.297,232.801,113.626,231.972,113.626z M230.472,163.122H86.179v-46.496h144.293     V163.122z" data-original="#000000" fill="#000000"/>
		</g>
	</g>
	<g>
		<g>
			<rect x="84.678" y="177.366" class="st2 active-path" width="147.294" height="49.486" data-original="#000000" fill="#000000"/>
		</g>
	</g>
	<g>
		<g>
			<path class="st0 active-path" d="M231.972,175.867H84.679c-0.829,0-1.5,0.671-1.5,1.5v49.486c0,0.829,0.671,1.5,1.5,1.5h147.293     c0.829,0,1.5-0.671,1.5-1.5v-49.486C233.472,176.538,232.801,175.867,231.972,175.867z M230.472,225.352H86.179v-46.486h144.293     V225.352z" data-original="#000000" fill="#000000"/>
		</g>
	</g>
	<g>
		<g>
			<path class="st1 active-path" d="M123.708,29.183h-15.764c-3.229,0-5.846,2.617-5.846,5.846v5.123h27.456V35.03     C129.554,31.801,126.937,29.183,123.708,29.183z" data-original="#000000" fill="#000000"/>
		</g>
	</g>
	<g>
		<g>
			<path class="st0 active-path" d="M123.708,27.684h-15.764c-4.051,0-7.346,3.295-7.346,7.346v5.122c0,0.829,0.671,1.5,1.5,1.5h27.456     c0.829,0,1.5-0.671,1.5-1.5V35.03C131.054,30.979,127.759,27.684,123.708,27.684z M128.054,38.652h-24.456V35.03     c0-2.396,1.95-4.346,4.346-4.346h15.764c2.396,0,4.346,1.95,4.346,4.346V38.652z" data-original="#000000" fill="#000000"/>
		</g>
	</g>
	<g>
		<g>
			<path class="st1 active-path" d="M232.887,40.152H83.766c-3.519,0-6.372,2.853-6.372,6.372c0,3.519,2.853,6.372,6.372,6.372h149.121     c3.519,0,6.372-2.853,6.372-6.372C239.259,43.005,236.406,40.152,232.887,40.152z" data-original="#000000" fill="#000000"/>
		</g>
	</g>
	<g>
		<g>
			<path class="st0 active-path" d="M232.887,38.652h-68.408c-0.829,0-1.5,0.671-1.5,1.5c0,0.829,0.671,1.5,1.5,1.5h68.408     c2.686,0,4.872,2.186,4.872,4.873c0,2.686-2.186,4.872-4.872,4.872H83.766c-2.687,0-4.872-2.186-4.872-4.872     c0-2.687,2.186-4.873,4.872-4.873h66.118c0.829,0,1.5-0.671,1.5-1.5c0-0.829-0.671-1.5-1.5-1.5H83.766     c-4.341,0-7.872,3.532-7.872,7.873c0,4.341,3.531,7.872,7.872,7.872h149.121c4.341,0,7.872-3.531,7.872-7.872     C240.759,42.184,237.228,38.652,232.887,38.652z" data-original="#000000" fill="#000000"/>
		</g>
	</g>
	<g>
		<g>
			<path class="st1 active-path" d="M232.887,102.386H83.766c-3.519,0-6.372,2.853-6.372,6.372v0c0,3.519,2.853,6.372,6.372,6.372h149.121     c3.519,0,6.372-2.853,6.372-6.372v0C239.259,105.239,236.406,102.386,232.887,102.386z" data-original="#000000" fill="#000000"/>
		</g>
	</g>
	<g>
		<g>
			<path class="st0 active-path" d="M232.887,100.886H83.766c-4.341,0-7.872,3.531-7.872,7.872c0,4.341,3.531,7.873,7.872,7.873h149.121     c4.341,0,7.872-3.532,7.872-7.873C240.759,104.417,237.228,100.886,232.887,100.886z M232.887,113.631H83.766     c-2.687,0-4.872-2.186-4.872-4.873c0-2.687,2.186-4.872,4.872-4.872h149.121c2.686,0,4.872,2.186,4.872,4.872     C237.759,111.445,235.574,113.631,232.887,113.631z" data-original="#000000" fill="#000000"/>
		</g>
	</g>
	<g>
		<g>
			<path class="st1 active-path" d="M232.887,164.62H83.766c-3.519,0-6.372,2.853-6.372,6.372c0,3.519,2.853,6.372,6.372,6.372h149.121     c3.519,0,6.372-2.853,6.372-6.372C239.259,167.473,236.406,164.62,232.887,164.62z" data-original="#000000" fill="#000000"/>
		</g>
	</g>
	<g>
		<g>
			<path class="st0 active-path" d="M232.887,163.12H83.766c-4.341,0-7.872,3.532-7.872,7.873s3.531,7.872,7.872,7.872h149.121     c4.341,0,7.872-3.531,7.872-7.872S237.228,163.12,232.887,163.12z M232.887,175.864H83.766c-2.687,0-4.872-2.186-4.872-4.872     s2.186-4.873,4.872-4.873h149.121c2.686,0,4.872,2.186,4.872,4.873S235.574,175.864,232.887,175.864z" data-original="#000000" fill="#000000"/>
		</g>
	</g>
	<g>
		<g>
			<path class="st1 active-path" d="M232.887,226.853H83.766c-3.519,0-6.372,2.853-6.372,6.372c0,3.519,2.853,6.372,6.372,6.372h149.121     c3.519,0,6.372-2.853,6.372-6.372C239.259,229.706,236.406,226.853,232.887,226.853z" data-original="#000000" fill="#000000"/>
		</g>
	</g>
	<g>
		<g>
			<path class="st0 active-path" d="M232.887,225.353H83.766c-4.341,0-7.872,3.532-7.872,7.873s3.531,7.872,7.872,7.872h149.121     c4.341,0,7.872-3.531,7.872-7.872S237.228,225.353,232.887,225.353z M232.887,238.098H83.766c-2.687,0-4.872-2.186-4.872-4.872     s2.186-4.873,4.872-4.873h149.121c2.686,0,4.872,2.186,4.872,4.873S235.574,238.098,232.887,238.098z" data-original="#000000" fill="#000000"/>
		</g>
	</g>
	<g>
		<g>
			<path class="st0 active-path" d="M178.024,33.264c-0.829,0-1.5,0.671-1.5,1.5v204.721c0,0.829,0.671,1.5,1.5,1.5c0.829,0,1.5-0.671,1.5-1.5     V34.764C179.524,33.935,178.852,33.264,178.024,33.264z" data-original="#000000" fill="#000000"/>
		</g>
	</g>
	<g>
		<g>
			<path class="st0 active-path" d="M208.611,33.264c-0.829,0-1.5,0.671-1.5,1.5v204.721c0,0.829,0.671,1.5,1.5,1.5c0.829,0,1.5-0.671,1.5-1.5     V34.764C210.111,33.935,209.439,33.264,208.611,33.264z" data-original="#000000" fill="#000000"/>
		</g>
	</g>
	<g>
		<g>
			<path class="st0 active-path" d="M208.611,225.284h-30.587c-0.829,0-1.5,0.671-1.5,1.5s0.671,1.5,1.5,1.5h30.587c0.829,0,1.5-0.671,1.5-1.5     S209.439,225.284,208.611,225.284z" data-original="#000000" fill="#000000"/>
		</g>
	</g>
	<g>
		<g>
			<path class="st0 active-path" d="M208.611,207.352h-30.587c-0.829,0-1.5,0.671-1.5,1.5c0,0.829,0.671,1.5,1.5,1.5h30.587     c0.829,0,1.5-0.671,1.5-1.5C210.111,208.023,209.439,207.352,208.611,207.352z" data-original="#000000" fill="#000000"/>
		</g>
	</g>
	<g>
		<g>
			<path class="st0 active-path" d="M208.611,189.42h-30.587c-0.829,0-1.5,0.671-1.5,1.5c0,0.829,0.671,1.5,1.5,1.5h30.587     c0.829,0,1.5-0.671,1.5-1.5C210.111,190.092,209.439,189.42,208.611,189.42z" data-original="#000000" fill="#000000"/>
		</g>
	</g>
	<g>
		<g>
			<path class="st0 active-path" d="M208.611,171.489h-30.587c-0.829,0-1.5,0.671-1.5,1.5s0.671,1.5,1.5,1.5h30.587c0.829,0,1.5-0.671,1.5-1.5     S209.439,171.489,208.611,171.489z" data-original="#000000" fill="#000000"/>
		</g>
	</g>
	<g>
		<g>
			<path class="st0 active-path" d="M208.611,153.557h-30.587c-0.829,0-1.5,0.671-1.5,1.5c0,0.829,0.671,1.5,1.5,1.5h30.587     c0.829,0,1.5-0.671,1.5-1.5C210.111,154.228,209.439,153.557,208.611,153.557z" data-original="#000000" fill="#000000"/>
		</g>
	</g>
	<g>
		<g>
			<path class="st0 active-path" d="M208.611,135.625h-30.587c-0.829,0-1.5,0.671-1.5,1.5s0.671,1.5,1.5,1.5h30.587c0.829,0,1.5-0.671,1.5-1.5     S209.439,135.625,208.611,135.625z" data-original="#000000" fill="#000000"/>
		</g>
	</g>
	<g>
		<g>
			<path class="st0 active-path" d="M208.611,117.693h-30.587c-0.829,0-1.5,0.671-1.5,1.5s0.671,1.5,1.5,1.5h30.587c0.829,0,1.5-0.671,1.5-1.5     S209.439,117.693,208.611,117.693z" data-original="#000000" fill="#000000"/>
		</g>
	</g>
	<g>
		<g>
			<path class="st0 active-path" d="M208.611,99.761h-30.587c-0.829,0-1.5,0.671-1.5,1.5s0.671,1.5,1.5,1.5h30.587c0.829,0,1.5-0.671,1.5-1.5     S209.439,99.761,208.611,99.761z" data-original="#000000" fill="#000000"/>
		</g>
	</g>
	<g>
		<g>
			<path class="st0 active-path" d="M208.611,81.83h-30.587c-0.829,0-1.5,0.671-1.5,1.5s0.671,1.5,1.5,1.5h30.587c0.829,0,1.5-0.671,1.5-1.5     S209.439,81.83,208.611,81.83z" data-original="#000000" fill="#000000"/>
		</g>
	</g>
	<g>
		<g>
			<path class="st0 active-path" d="M208.611,63.897h-30.587c-0.829,0-1.5,0.671-1.5,1.5c0,0.829,0.671,1.5,1.5,1.5h30.587     c0.829,0,1.5-0.671,1.5-1.5C210.111,64.569,209.439,63.897,208.611,63.897z" data-original="#000000" fill="#000000"/>
		</g>
	</g>
	<g>
		<g>
			<path class="st0 active-path" d="M208.611,45.966h-30.587c-0.829,0-1.5,0.671-1.5,1.5c0,0.829,0.671,1.5,1.5,1.5h30.587     c0.829,0,1.5-0.671,1.5-1.5C210.111,46.637,209.439,45.966,208.611,45.966z" data-original="#000000" fill="#000000"/>
		</g>
	</g>
	<g>
		<g>
			<path class="st3 active-path" d="M91.187,102.267H23.96c-3.983,0-7.219,3.226-7.219,7.219v11.445v15.19v96.256     c0,3.993,3.236,7.219,7.219,7.219h67.227c3.984,0,7.219-3.227,7.219-7.219V109.487C98.407,105.494,95.171,102.267,91.187,102.267     z" data-original="#000000" fill="#000000"/>
		</g>
	</g>
	<g>
		<g>
			<path class="st0 active-path" d="M91.187,100.768H23.96c-4.808,0-8.719,3.912-8.719,8.719v11.445c0,0.829,0.671,1.5,1.5,1.5     c0.829,0,1.5-0.671,1.5-1.5v-11.445c0-3.154,2.566-5.719,5.719-5.719h67.227c3.154,0,5.72,2.565,5.72,5.719v122.891     c0,3.154-2.566,5.72-5.72,5.72H23.96c-3.154,0-5.719-2.566-5.719-5.72v-96.256c0-0.829-0.671-1.5-1.5-1.5     c-0.829,0-1.5,0.671-1.5,1.5v96.256c0,4.808,3.912,8.72,8.719,8.72h67.227c4.808,0,8.72-3.912,8.72-8.72V109.487     C99.907,104.679,95.995,100.768,91.187,100.768z" data-original="#000000" fill="#000000"/>
		</g>
	</g>
	<g>
		<g>
			<path class="st3 active-path" d="M72.528,88.343H42.113c-4.678,0-8.471,3.793-8.471,8.471v5.454h47.357v-5.454     C80.999,92.135,77.206,88.343,72.528,88.343z" data-original="#000000" fill="#000000"/>
		</g>
	</g>
	<g>
		<g>
			<path class="st0 active-path" d="M72.528,86.843H42.113c-5.498,0-9.971,4.473-9.971,9.971v5.454c0,0.829,0.671,1.5,1.5,1.5h47.357     c0.829,0,1.5-0.671,1.5-1.5v-5.454C82.499,91.315,78.026,86.843,72.528,86.843z M79.499,100.767H35.142v-3.954     c0-3.844,3.127-6.971,6.971-6.971h30.414c3.844,0,6.971,3.127,6.971,6.971V100.767z" data-original="#000000" fill="#000000"/>
		</g>
	</g>
	<g>
		<g>
			<rect x="16.741" y="143.379" class="st6 active-path" width="81.666" height="55.352" data-original="#000000" fill="#000000"/>
		</g>
	</g>
	<g>
		<g>
			<path class="st0 active-path" d="M98.407,141.879H16.741c-0.829,0-1.5,0.671-1.5,1.5v55.352c0,0.829,0.671,1.5,1.5,1.5h81.666     c0.829,0,1.5-0.671,1.5-1.5v-55.352C99.907,142.551,99.235,141.879,98.407,141.879z M96.907,197.231H18.241v-52.352h78.666     V197.231z" data-original="#000000" fill="#000000"/>
		</g>
	</g>
	<g>
		<g>
			<rect x="219.471" y="54.402" class="st4 active-path" width="11" height="46.48" data-original="#000000" fill="#000000"/>
		</g>
	</g>
	<g>
		<g>
			<rect x="219.471" y="116.632" class="st4 active-path" width="11" height="46.49" data-original="#000000" fill="#000000"/>
		</g>
	</g>
	<g>
		<g>
			<rect x="219.471" y="178.862" class="st4 active-path" width="11" height="46.49" data-original="#000000" fill="#000000"/>
		</g>
	</g>
	<g>
		<g>
			<path class="st9 active-path" d="M232.891,41.652h-11c2.68,0,4.87,2.19,4.87,4.87c0,2.69-2.19,4.88-4.87,4.88h11c2.68,0,4.87-2.19,4.87-4.88     C237.761,43.842,235.571,41.652,232.891,41.652z" data-original="#000000" fill="#000000"/>
		</g>
	</g>
	<g>
		<g>
			<path class="st9 active-path" d="M232.891,103.882h-11c2.68,0,4.87,2.19,4.87,4.88c0,2.68-2.19,4.87-4.87,4.87h11c2.68,0,4.87-2.19,4.87-4.87     C237.761,106.072,235.571,103.882,232.891,103.882z" data-original="#000000" fill="#000000"/>
		</g>
	</g>
	<g>
		<g>
			<path class="st9 active-path" d="M232.891,166.122h-11c2.68,0,4.87,2.18,4.87,4.87c0,2.69-2.19,4.87-4.87,4.87h11c2.68,0,4.87-2.18,4.87-4.87     C237.761,168.302,235.571,166.122,232.891,166.122z" data-original="#000000" fill="#000000"/>
		</g>
	</g>
	<g>
		<g>
			<path class="st9 active-path" d="M232.891,228.352h-11c2.68,0,4.87,2.19,4.87,4.87c0,2.69-2.19,4.88-4.87,4.88h11c2.68,0,4.87-2.19,4.87-4.88     C237.761,230.542,235.571,228.352,232.891,228.352z" data-original="#000000" fill="#000000"/>
		</g>
	</g>
	<g>
		<g>
			<path class="st5 active-path" d="M91.191,103.772h-10.67c3.15,0,5.72,2.56,5.72,5.71v32.4h10.67v-32.4     C96.911,106.332,94.341,103.772,91.191,103.772z" data-original="#000000" fill="#000000"/>
		</g>
	</g>
	<g>
		<g>
			<path class="st5 active-path" d="M86.241,200.232v32.15c0,3.15-2.57,5.72-5.72,5.72h10.67c3.15,0,5.72-2.57,5.72-5.72v-32.15H86.241z" data-original="#000000" fill="#000000"/>
		</g>
	</g>
	<g>
		<g>
			<rect x="86.241" y="144.882" class="st8 active-path" width="10.67" height="52.35" data-original="#000000" fill="#000000"/>
		</g>
	</g>
	<g>
		<g>
			<path class="st7 active-path" d="M158.52,120.434c-10.736,0-19.471,8.734-19.471,19.471c0,10.736,8.734,19.47,19.471,19.47     c10.736,0,19.47-8.734,19.47-19.47C177.99,129.169,169.256,120.434,158.52,120.434z" data-original="#000000" fill="#000000"/>
		</g>
	</g>
	<g>
		<g>
			<path class="st0 active-path" d="M158.52,118.935c-11.564,0-20.971,9.407-20.971,20.971c0,11.563,9.407,20.97,20.971,20.97     c11.563,0,20.97-9.407,20.97-20.97C179.49,128.342,170.083,118.935,158.52,118.935z M158.52,157.875     c-9.909,0-17.971-8.062-17.971-17.97c0-9.909,8.062-17.971,17.971-17.971c9.909,0,17.97,8.062,17.97,17.971     C176.49,149.814,168.429,157.875,158.52,157.875z" data-original="#000000" fill="#000000"/>
		</g>
	</g>
	<g>
		<g>
			<path class="st7 active-path" d="M57.717,151.775c-10.736,0-19.47,8.734-19.47,19.47c0,10.736,8.734,19.471,19.47,19.471     c10.736,0,19.471-8.734,19.471-19.471C77.188,160.509,68.453,151.775,57.717,151.775z" data-original="#000000" fill="#000000"/>
		</g>
	</g>
	<g>
		<g>
			<path class="st0 active-path" d="M57.717,150.275c-11.563,0-20.97,9.407-20.97,20.97c0,11.564,9.407,20.971,20.97,20.971     c11.563,0,20.971-9.407,20.971-20.971C78.688,159.682,69.281,150.275,57.717,150.275z M57.717,189.216     c-9.909,0-17.97-8.061-17.97-17.971c0-9.909,8.062-17.97,17.97-17.97c9.909,0,17.971,8.061,17.971,17.97     C75.688,181.154,67.626,189.216,57.717,189.216z" data-original="#000000" fill="#000000"/>
		</g>
	</g>
	<g>
		<g>
			<path class="st1 active-path" d="M158.52,127.331c-1.49,0-8.675,7.776-8.675,14.721c0,6.945,3.884,10.427,8.675,10.427     c4.791,0,8.675-3.483,8.675-10.427C167.194,135.107,160.272,127.331,158.52,127.331z" data-original="#000000" fill="#000000"/>
		</g>
	</g>
	<g>
		<g>
			<path class="st0 active-path" d="M158.519,125.831c-2.798,0-10.174,9.013-10.174,16.22c0,7.246,3.994,11.927,10.174,11.927     c6.181,0,10.175-4.682,10.175-11.927C168.694,134.665,161.394,125.831,158.519,125.831z M158.519,150.978     c-4.425,0-7.174-3.421-7.174-8.927c0-5.742,5.597-12.101,7.215-13.139c1.741,0.988,7.134,7.462,7.134,13.139     C165.694,147.558,162.945,150.978,158.519,150.978z" data-original="#000000" fill="#000000"/>
		</g>
	</g>
	<g>
		<g>
			<path class="st1 active-path" d="M57.717,158.671c-1.49,0-8.675,7.776-8.675,14.721c0,6.945,3.884,10.427,8.675,10.427     c4.791,0,8.675-3.483,8.675-10.427C66.392,166.448,59.47,158.671,57.717,158.671z" data-original="#000000" fill="#000000"/>
		</g>
	</g>
	<g>
		<g>
			<path class="st0 active-path" d="M57.717,157.171c-2.798,0-10.175,9.014-10.175,16.221c0,7.245,3.994,11.927,10.175,11.927     c6.181,0,10.174-4.682,10.174-11.927C67.892,166.006,60.591,157.171,57.717,157.171z M57.717,182.319     c-4.426,0-7.175-3.42-7.175-8.927c0-5.743,5.598-12.101,7.215-13.14c1.74,0.988,7.134,7.462,7.134,13.14     C64.892,178.898,62.143,182.319,57.717,182.319z" data-original="#000000" fill="#000000"/>
		</g>
	</g>
</g></g> </svg>
