<svg height="512pt" viewBox="-35 0 512 512.00002" width="512pt" xmlns="http://www.w3.org/2000/svg"><path d="m159.691406 220.691406h-124.382812c-19.5 0-35.308594 15.808594-35.308594 35.308594s15.808594 35.308594 35.308594 35.308594h97.105468c0-18.007813 12.09375-44.488282 27.277344-70.617188zm0 0" fill="#898890"/><path d="m308.964844 291.308594h97.105468c19.5 0 35.308594-15.808594 35.308594-35.308594s-15.808594-35.308594-35.308594-35.308594h-124.382812c15.183594 26.128906 27.277344 52.609375 27.277344 70.617188zm0 0" fill="#a1a0a6"/><path d="m220.691406 0h-185.382812c-19.5 0-35.308594 15.808594-35.308594 35.308594 0 19.503906 15.808594 35.3125 35.308594 35.3125h185.382812zm0 0" fill="#898890"/><path d="m406.070312 70.621094c19.5 0 35.308594-15.808594 35.308594-35.3125 0-19.5-15.808594-35.308594-35.308594-35.308594h-185.378906v70.621094zm0 0" fill="#a1a0a6"/><path d="m35.308594 441.378906c-19.5 0-35.308594 15.808594-35.308594 35.3125 0 19.5 15.808594 35.308594 35.308594 35.308594h185.382812v-70.621094zm0 0" fill="#898890"/><path d="m406.070312 441.378906h-185.378906v70.621094h185.378906c19.5 0 35.308594-15.808594 35.308594-35.308594 0-19.503906-15.808594-35.3125-35.308594-35.3125zm0 0" fill="#a1a0a6"/><path d="m220.691406 132.414062c22.195313 28.09375 42.570313 57.578126 60.996094 88.277344h124.382812v-150.070312h-185.378906zm0 0" fill="#ffd733"/><path d="m220.691406 70.621094h-185.382812v150.070312h124.382812c18.425782-30.699218 38.800782-60.183594 61-88.277344zm0 0" fill="#ffcd00"/><path d="m220.691406 379.585938v61.792968h185.378906v-150.070312h-97.105468c0 48.753906-39.523438 88.277344-88.273438 88.277344zm0 0" fill="#ffd733"/><path d="m220.691406 379.585938c-48.753906 0-88.277344-39.523438-88.277344-88.277344h-97.105468v150.070312h185.382812zm0 0" fill="#ffcd00"/><path d="m220.691406 344.277344c29.238282-.03125 52.933594-23.726563 52.964844-52.96875 0-1.445313-.628906-15.242188-22.484375-52.847656 21.855469 37.605468 22.484375 51.402343 22.484375 52.847656-.03125 29.242187-23.726562 52.9375-52.964844 52.96875v35.308594c48.75 0 88.273438-39.523438 88.273438-88.277344 0-18.007813-12.09375-44.488282-27.277344-70.617188-18.425781-30.699218-38.800781-60.183594-60.996094-88.277344zm0 0" fill="#79787d"/><path d="m220.691406 379.585938v-247.171876c-22.199218 28.09375-42.574218 57.578126-61 88.277344-15.183594 26.128906-27.277344 52.609375-27.277344 70.617188 0 48.753906 39.523438 88.277344 88.277344 88.277344zm0 0" fill="#57565c"/><path d="m220.691406 353.101562c-4.875 0-8.828125-3.949218-8.828125-8.824218s3.953125-8.828125 8.828125-8.828125c24.363282-.03125 44.105469-19.773438 44.136719-44.140625 0-.058594-.652344-12.914063-21.285156-48.417969-2.6875-4.066406-1.566407-9.542969 2.5-12.230469 4.070312-2.6875 9.546875-1.570312 12.230469 2.5.195312.289063.367187.589844.527343.902344 21.980469 37.765625 23.683594 53.371094 23.683594 57.246094-.039063 34.113281-27.683594 61.757812-61.792969 61.792968zm0 0" fill="#e0e0e2"/></svg>